<svg width="1080" height="1350" viewBox="0 0 1080 1350" fill="none" xmlns="http://www.w3.org/2000/svg">
  <defs>
    <linearGradient id="bg" x1="0" y1="0" x2="1080" y2="1350" gradientUnits="userSpaceOnUse">
      <stop stop-color="#F5FFF9"/>
      <stop offset="0.55" stop-color="#FFFFFF"/>
      <stop offset="1" stop-color="#EEF8FF"/>
    </linearGradient>
    <linearGradient id="hero" x1="70" y1="80" x2="1010" y2="300" gradientUnits="userSpaceOnUse">
      <stop stop-color="#047857"/>
      <stop offset="0.55" stop-color="#0EA5E9"/>
      <stop offset="1" stop-color="#6D28D9"/>
    </linearGradient>
    <linearGradient id="green" x1="0" y1="0" x2="1" y2="1">
      <stop stop-color="#10B981"/>
      <stop offset="1" stop-color="#047857"/>
    </linearGradient>
    <linearGradient id="blue" x1="0" y1="0" x2="1" y2="1">
      <stop stop-color="#38BDF8"/>
      <stop offset="1" stop-color="#1D4ED8"/>
    </linearGradient>
    <linearGradient id="violet" x1="0" y1="0" x2="1" y2="1">
      <stop stop-color="#A78BFA"/>
      <stop offset="1" stop-color="#7C3AED"/>
    </linearGradient>
    <linearGradient id="gold" x1="0" y1="0" x2="1" y2="1">
      <stop stop-color="#FBBF24"/>
      <stop offset="1" stop-color="#D97706"/>
    </linearGradient>
    <linearGradient id="cyan" x1="0" y1="0" x2="1" y2="1">
      <stop stop-color="#22D3EE"/>
      <stop offset="1" stop-color="#0891B2"/>
    </linearGradient>
    <linearGradient id="pink" x1="0" y1="0" x2="1" y2="1">
      <stop stop-color="#F472B6"/>
      <stop offset="1" stop-color="#DB2777"/>
    </linearGradient>
    <linearGradient id="teal" x1="0" y1="0" x2="1" y2="1">
      <stop stop-color="#2DD4BF"/>
      <stop offset="1" stop-color="#0F766E"/>
    </linearGradient>
    <filter id="shadow" x="-20%" y="-20%" width="140%" height="150%">
      <feDropShadow dx="0" dy="18" stdDeviation="18" flood-color="#0F172A" flood-opacity="0.12"/>
    </filter>
    <style>
      .font { font-family: Inter, Segoe UI, Arial, sans-serif; }
      .title { font-weight: 900; letter-spacing: -1px; }
      .label { font-weight: 800; letter-spacing: .18em; }
      .small { font-size: 24px; }
    </style>
  </defs>

  <rect width="1080" height="1350" fill="url(#bg)"/>
  <circle cx="105" cy="110" r="180" fill="#BBF7D0" opacity="0.45"/>
  <circle cx="980" cy="245" r="210" fill="#DBEAFE" opacity="0.7"/>
  <circle cx="940" cy="1170" r="190" fill="#E9D5FF" opacity="0.5"/>

  <rect x="70" y="70" width="940" height="250" rx="46" fill="url(#hero)" filter="url(#shadow)"/>
  <text x="110" y="140" class="font label" font-size="24" fill="#D1FAE5">RENKAR</text>
  <text x="110" y="206" class="font title" font-size="58" fill="white">Tabla de Inversión</text>
  <text x="110" y="254" class="font" font-size="28" font-weight="700" fill="#E0F2FE">Planes disponibles · Duración 100 días</text>
  <rect x="772" y="120" width="178" height="132" rx="34" fill="white" opacity="0.18"/>
  <path d="M815 213L855 173L887 197L926 154" stroke="white" stroke-width="12" stroke-linecap="round" stroke-linejoin="round"/>
  <path d="M900 154H926V180" stroke="white" stroke-width="12" stroke-linecap="round" stroke-linejoin="round"/>

  <g class="font" filter="url(#shadow)">
    <rect x="70" y="370" width="940" height="825" rx="40" fill="white"/>
    <rect x="100" y="400" width="880" height="70" rx="24" fill="#F1F5F9"/>
    <text x="135" y="445" class="label" font-size="20" fill="#64748B">PLAN</text>
    <text x="335" y="445" class="label" font-size="20" fill="#64748B">INVERSIÓN</text>
    <text x="575" y="445" class="label" font-size="20" fill="#64748B">GANANCIA DIARIA</text>
    <text x="850" y="445" class="label" font-size="20" fill="#64748B">ROI</text>

    <g transform="translate(100 498)">
      <rect width="880" height="82" rx="24" fill="#F8FAFC"/>
      <rect width="14" height="82" rx="7" fill="url(#green)"/>
      <rect x="35" y="18" width="126" height="46" rx="23" fill="url(#green)"/>
      <text x="98" y="49" text-anchor="middle" font-size="23" font-weight="900" fill="white">RENKAR A</text>
      <text x="235" y="51" font-size="34" font-weight="900" fill="#020617">RD$600</text>
      <text x="500" y="51" font-size="31" font-weight="900" fill="#047857">RD$54</text>
      <rect x="742" y="18" width="104" height="46" rx="23" fill="#DCFCE7"/>
      <text x="794" y="49" text-anchor="middle" font-size="24" font-weight="900" fill="#047857">9%</text>
    </g>

    <g transform="translate(100 600)">
      <rect width="880" height="82" rx="24" fill="#F8FAFC"/>
      <rect width="14" height="82" rx="7" fill="url(#blue)"/>
      <rect x="35" y="18" width="126" height="46" rx="23" fill="url(#blue)"/>
      <text x="98" y="49" text-anchor="middle" font-size="23" font-weight="900" fill="white">RENKAR B</text>
      <text x="235" y="51" font-size="34" font-weight="900" fill="#020617">RD$1,300</text>
      <text x="500" y="51" font-size="31" font-weight="900" fill="#0369A1">RD$117</text>
      <rect x="742" y="18" width="104" height="46" rx="23" fill="#DBEAFE"/>
      <text x="794" y="49" text-anchor="middle" font-size="24" font-weight="900" fill="#1D4ED8">9%</text>
    </g>

    <g transform="translate(100 702)">
      <rect width="880" height="82" rx="24" fill="#F8FAFC"/>
      <rect width="14" height="82" rx="7" fill="url(#violet)"/>
      <rect x="35" y="18" width="126" height="46" rx="23" fill="url(#violet)"/>
      <text x="98" y="49" text-anchor="middle" font-size="23" font-weight="900" fill="white">RENKAR C</text>
      <text x="235" y="51" font-size="34" font-weight="900" fill="#020617">RD$3,500</text>
      <text x="500" y="51" font-size="31" font-weight="900" fill="#6D28D9">RD$315</text>
      <rect x="742" y="18" width="104" height="46" rx="23" fill="#EDE9FE"/>
      <text x="794" y="49" text-anchor="middle" font-size="24" font-weight="900" fill="#6D28D9">9%</text>
    </g>

    <g transform="translate(100 804)">
      <rect width="880" height="82" rx="24" fill="#F8FAFC"/>
      <rect width="14" height="82" rx="7" fill="url(#gold)"/>
      <rect x="35" y="18" width="126" height="46" rx="23" fill="url(#gold)"/>
      <text x="98" y="49" text-anchor="middle" font-size="23" font-weight="900" fill="white">RENKAR D</text>
      <text x="235" y="51" font-size="34" font-weight="900" fill="#020617">RD$6,500</text>
      <text x="500" y="51" font-size="31" font-weight="900" fill="#B45309">RD$520</text>
      <rect x="742" y="18" width="104" height="46" rx="23" fill="#FEF3C7"/>
      <text x="794" y="49" text-anchor="middle" font-size="24" font-weight="900" fill="#B45309">8%</text>
    </g>

    <g transform="translate(100 906)">
      <rect width="880" height="82" rx="24" fill="#F8FAFC"/>
      <rect width="14" height="82" rx="7" fill="url(#cyan)"/>
      <rect x="35" y="18" width="126" height="46" rx="23" fill="url(#cyan)"/>
      <text x="98" y="49" text-anchor="middle" font-size="23" font-weight="900" fill="white">RENKAR E</text>
      <text x="235" y="51" font-size="34" font-weight="900" fill="#020617">RD$12,500</text>
      <text x="500" y="51" font-size="31" font-weight="900" fill="#0891B2">RD$1,000</text>
      <rect x="742" y="18" width="104" height="46" rx="23" fill="#CFFAFE"/>
      <text x="794" y="49" text-anchor="middle" font-size="24" font-weight="900" fill="#0891B2">8%</text>
    </g>

    <g transform="translate(100 1008)">
      <rect width="880" height="82" rx="24" fill="#F8FAFC"/>
      <rect width="14" height="82" rx="7" fill="url(#pink)"/>
      <rect x="35" y="18" width="126" height="46" rx="23" fill="url(#pink)"/>
      <text x="98" y="49" text-anchor="middle" font-size="23" font-weight="900" fill="white">RENKAR F</text>
      <text x="235" y="51" font-size="34" font-weight="900" fill="#020617">RD$25,500</text>
      <text x="500" y="51" font-size="31" font-weight="900" fill="#BE185D">RD$1,785</text>
      <rect x="742" y="18" width="104" height="46" rx="23" fill="#FCE7F3"/>
      <text x="794" y="49" text-anchor="middle" font-size="24" font-weight="900" fill="#BE185D">7%</text>
    </g>

    <g transform="translate(100 1110)">
      <rect width="880" height="82" rx="24" fill="#F8FAFC"/>
      <rect width="14" height="82" rx="7" fill="url(#teal)"/>
      <rect x="35" y="18" width="126" height="46" rx="23" fill="url(#teal)"/>
      <text x="98" y="49" text-anchor="middle" font-size="23" font-weight="900" fill="white">RENKAR G</text>
      <text x="235" y="51" font-size="34" font-weight="900" fill="#020617">RD$50,000</text>
      <text x="500" y="51" font-size="31" font-weight="900" fill="#0F766E">RD$3,500</text>
      <rect x="742" y="18" width="104" height="46" rx="23" fill="#CCFBF1"/>
      <text x="794" y="49" text-anchor="middle" font-size="24" font-weight="900" fill="#0F766E">7%</text>
    </g>
  </g>

  <rect x="94" y="1240" width="892" height="70" rx="28" fill="#ECFDF5" stroke="#BBF7D0"/>
  <text x="540" y="1284" class="font" text-anchor="middle" font-size="25" font-weight="800" fill="#047857">
    Recargas por transferencia bancaria · Validación manual por administración
  </text>
</svg>
